<?xml version="1.0" encoding="UTF-8"?>
<svg id="Layer_2" data-name="Layer 2" xmlns="http://www.w3.org/2000/svg" viewBox="0 0 419.309 99.504">
  <defs>
    <style>
      .cls-1 {
        fill: #377c82;
      }

      .cls-2 {
        fill: #fff;
      }
    </style>
  </defs>
  <g id="Layer_1-2" data-name="Layer 1">
    <g>
      <path class="cls-2" d="M19.272,6.44c8.038,0,16.532,1.35,24.022,9.556,5.389,5.92,8.769,14.022,8.769,24.824,0,10.906-3.288,18.8-8.312,24.513-8.403,9.66-18.907,10.387-24.022,10.387H0V6.44h19.272ZM14.066,62.216h3.745c2.923,0,9.316-.312,13.883-4.674,3.289-3.116,5.937-9.036,5.937-16.723,0-7.478-2.648-12.256-5.023-14.957-4.567-5.193-10.504-5.92-14.797-5.92h-3.745v42.274Z"/>
      <path class="cls-2" d="M102.752,55.153h-30.416c0,2.493.822,5.816,2.466,7.894,2.009,2.493,4.75,2.908,6.759,2.908,1.918,0,3.927-.415,5.297-1.35.183-.104,1.735-1.247,2.832-3.843l12.422,1.455c-1.827,6.543-5.48,9.971-7.855,11.633-3.927,2.701-8.312,3.428-12.879,3.428-6.12,0-11.508-1.247-16.258-6.647-3.562-4.051-6.12-10.179-6.12-17.865,0-6.647,2.101-13.502,6.211-18.28,4.933-5.609,11.052-6.647,15.619-6.647s11.144.935,16.167,6.959c4.841,5.816,5.754,13.087,5.754,18.8v1.558ZM90.604,46.221c-.091-.416-.731-3.324-2.649-5.401-1.461-1.558-3.562-2.596-6.211-2.596-3.38,0-5.389,1.558-6.668,3.012-1.005,1.247-1.918,2.909-2.283,4.986h17.811Z"/>
      <path class="cls-2" d="M152.711,55.153h-30.416c0,2.493.822,5.816,2.466,7.894,2.009,2.493,4.75,2.908,6.759,2.908,1.918,0,3.927-.415,5.297-1.35.183-.104,1.735-1.247,2.832-3.843l12.422,1.455c-1.827,6.543-5.48,9.971-7.855,11.633-3.927,2.701-8.312,3.428-12.879,3.428-6.12,0-11.508-1.247-16.258-6.647-3.562-4.051-6.12-10.179-6.12-17.865,0-6.647,2.101-13.502,6.211-18.28,4.933-5.609,11.052-6.647,15.619-6.647s11.144.935,16.167,6.959c4.841,5.816,5.754,13.087,5.754,18.8v1.558ZM140.563,46.221c-.091-.416-.731-3.324-2.649-5.401-1.461-1.558-3.562-2.596-6.211-2.596-3.38,0-5.389,1.558-6.668,3.012-1.005,1.247-1.918,2.909-2.283,4.986h17.811Z"/>
      <path class="cls-2" d="M174.082,99.504h-13.153V29.394h13.153v5.505c4.292-6.336,9.59-7.063,12.696-7.063,7.307,0,11.874,3.635,14.432,6.543,3.654,4.155,6.12,10.491,6.12,18.073,0,7.998-2.466,14.022-6.485,18.592-4.019,4.57-8.403,6.232-13.792,6.232-8.129,0-11.6-4.674-12.97-6.855v29.083ZM176.273,44.144c-2.101,2.389-3.105,5.712-3.105,8.517,0,2.909,1.005,5.92,2.923,8.206,1.918,2.181,4.658,3.532,7.49,3.532,2.466,0,5.115-1.143,7.033-3.22,2.101-2.285,3.197-5.816,3.197-8.829,0-3.427-1.279-6.439-3.105-8.413-1.918-2.077-4.476-3.22-7.125-3.22-3.653,0-6.028,1.973-7.307,3.428Z"/>
      <path class="cls-1" d="M229.793,10.179v74.473h8.403v10.179h-19.546V0h19.546v10.179h-8.403Z"/>
      <path class="cls-1" d="M270.893,6.44c5.298,0,11.144.831,15.984,5.712,5.207,5.193,5.938,12.049,5.938,16.827,0,8.725-2.923,13.606-5.206,16.307-4.842,5.609-11.235,6.128-15.528,6.128h-8.586v24.305h-14.065V6.44h21.464ZM263.495,38.327h5.024c1.918,0,5.297-.104,7.581-2.597,1.278-1.454,2.283-3.843,2.283-6.855,0-2.908-.913-5.297-2.283-6.751-2.102-2.285-5.115-2.597-7.855-2.597h-4.75v18.8Z"/>
      <path class="cls-1" d="M300.484,0h13.152v34.899c1.645-2.285,3.38-3.843,4.933-4.778,2.74-1.662,5.023-1.973,7.946-1.973,3.197,0,7.946.519,11.509,4.674,3.745,4.259,4.02,9.971,4.02,13.503v29.394h-13.153v-23.786c0-3.22-.091-6.959-2.192-9.244-1.188-1.35-3.196-2.077-5.114-2.077-2.832,0-4.476,1.454-5.207,2.285-2.648,2.908-2.74,7.375-2.74,9.66v23.162h-13.152V0Z"/>
      <path class="cls-1" d="M392.094,55.153h-30.416c0,2.493.821,5.816,2.466,7.894,2.01,2.493,4.75,2.908,6.759,2.908,1.918,0,3.928-.415,5.298-1.35.183-.104,1.735-1.247,2.832-3.843l12.422,1.455c-1.827,6.543-5.48,9.971-7.855,11.633-3.928,2.701-8.312,3.428-12.879,3.428-6.119,0-11.509-1.247-16.258-6.647-3.562-4.051-6.12-10.179-6.12-17.865,0-6.647,2.101-13.502,6.211-18.28,4.933-5.609,11.052-6.647,15.619-6.647s11.144.935,16.167,6.959c4.841,5.816,5.755,13.087,5.755,18.8v1.558ZM379.946,46.221c-.092-.416-.73-3.324-2.649-5.401-1.461-1.558-3.562-2.596-6.211-2.596-3.379,0-5.389,1.558-6.667,3.012-1.005,1.247-1.919,2.909-2.284,4.986h17.812Z"/>
      <path class="cls-1" d="M399.763,0h19.546v94.83h-19.546v-10.179h8.402V10.179h-8.402V0Z"/>
    </g>
  </g>
</svg>